<mxfile host="app.diagrams.net" modified="2021-02-24T04:32:55.657Z" agent="5.0 (Macintosh; Intel Mac OS X 10_15_6) AppleWebKit/537.36 (KHTML, like Gecko) Chrome/84.0.4147.135 Safari/537.36" etag="GFzQDyR9R9UJA_jal42i" version="14.1.8" type="github">
  <diagram id="prtHgNgQTEPvFCAcTncT" name="Page-1">
    <mxGraphModel dx="1351" dy="807" grid="1" gridSize="10" guides="1" tooltips="1" connect="1" arrows="1" fold="1" page="1" pageScale="1" pageWidth="1100" pageHeight="850" math="0" shadow="0">
      <root>
        <mxCell id="0" />
        <mxCell id="1" parent="0" />
        <mxCell id="dNxyNK7c78bLwvsdeMH5-19" value="Steam-Roller Game Info App" style="swimlane;html=1;childLayout=stackLayout;resizeParent=1;resizeParentMax=0;horizontal=0;startSize=20;horizontalStack=0;" parent="1" vertex="1">
          <mxGeometry x="20" y="190" width="1130" height="480" as="geometry" />
        </mxCell>
        <mxCell id="dNxyNK7c78bLwvsdeMH5-21" value="CLI Class" style="swimlane;html=1;startSize=20;horizontal=0;perimeterSpacing=1;glass=0;" parent="dNxyNK7c78bLwvsdeMH5-19" vertex="1">
          <mxGeometry x="20" width="1110" height="180" as="geometry" />
        </mxCell>
        <mxCell id="vWouyCo1F20YEl_oMGs6-9" value="Welcome &lt;br&gt;Message &lt;br&gt;displayed &lt;br&gt;to user" style="shape=step;perimeter=stepPerimeter;whiteSpace=wrap;html=1;fixedSize=1;fontFamily=Helvetica;fontSize=12;fontColor=#000000;align=center;strokeColor=#d79b00;fillColor=#ffe6cc;" parent="dNxyNK7c78bLwvsdeMH5-21" vertex="1">
          <mxGeometry x="30" y="20" width="120" height="80" as="geometry" />
        </mxCell>
        <mxCell id="emwWbNpicgDGUg5nURXW-8" value="Prints out &lt;br&gt;sorted list &lt;br&gt;of games" style="shape=step;perimeter=stepPerimeter;whiteSpace=wrap;html=1;fixedSize=1;glass=0;fillColor=#ffe6cc;strokeColor=#d79b00;" vertex="1" parent="dNxyNK7c78bLwvsdeMH5-21">
          <mxGeometry x="210" y="20" width="120" height="80" as="geometry" />
        </mxCell>
        <mxCell id="emwWbNpicgDGUg5nURXW-14" style="edgeStyle=orthogonalEdgeStyle;orthogonalLoop=1;jettySize=auto;html=1;entryX=0;entryY=0.5;entryDx=0;entryDy=0;" edge="1" parent="dNxyNK7c78bLwvsdeMH5-21" target="emwWbNpicgDGUg5nURXW-12">
          <mxGeometry relative="1" as="geometry">
            <mxPoint x="430" y="35" as="sourcePoint" />
            <Array as="points">
              <mxPoint x="430" y="35" />
            </Array>
          </mxGeometry>
        </mxCell>
        <mxCell id="emwWbNpicgDGUg5nURXW-15" style="edgeStyle=orthogonalEdgeStyle;orthogonalLoop=1;jettySize=auto;html=1;entryX=0;entryY=0.5;entryDx=0;entryDy=0;" edge="1" parent="dNxyNK7c78bLwvsdeMH5-21" target="emwWbNpicgDGUg5nURXW-13">
          <mxGeometry relative="1" as="geometry">
            <mxPoint x="430" y="85" as="sourcePoint" />
            <Array as="points">
              <mxPoint x="430" y="85" />
            </Array>
          </mxGeometry>
        </mxCell>
        <mxCell id="emwWbNpicgDGUg5nURXW-66" style="edgeStyle=orthogonalEdgeStyle;rounded=1;sketch=0;jumpStyle=arc;jumpSize=10;orthogonalLoop=1;jettySize=auto;html=1;exitX=0.5;exitY=1;exitDx=0;exitDy=0;entryX=0.5;entryY=0;entryDx=0;entryDy=0;shadow=0;" edge="1" parent="dNxyNK7c78bLwvsdeMH5-21" source="emwWbNpicgDGUg5nURXW-11" target="emwWbNpicgDGUg5nURXW-65">
          <mxGeometry relative="1" as="geometry" />
        </mxCell>
        <mxCell id="emwWbNpicgDGUg5nURXW-11" value="User selects next action from numbered list" style="whiteSpace=wrap;html=1;aspect=fixed;glass=0;fillColor=#e1d5e7;strokeColor=#9673a6;" vertex="1" parent="dNxyNK7c78bLwvsdeMH5-21">
          <mxGeometry x="350" y="20" width="80" height="80" as="geometry" />
        </mxCell>
        <mxCell id="emwWbNpicgDGUg5nURXW-27" style="edgeStyle=orthogonalEdgeStyle;orthogonalLoop=1;jettySize=auto;html=1;entryX=0;entryY=0.5;entryDx=0;entryDy=0;" edge="1" parent="dNxyNK7c78bLwvsdeMH5-21" target="emwWbNpicgDGUg5nURXW-25">
          <mxGeometry relative="1" as="geometry">
            <mxPoint x="536" y="25" as="sourcePoint" />
            <Array as="points">
              <mxPoint x="536" y="25" />
            </Array>
          </mxGeometry>
        </mxCell>
        <mxCell id="emwWbNpicgDGUg5nURXW-28" style="edgeStyle=orthogonalEdgeStyle;orthogonalLoop=1;jettySize=auto;html=1;exitX=1;exitY=0.75;exitDx=0;exitDy=0;entryX=0;entryY=0.5;entryDx=0;entryDy=0;" edge="1" parent="dNxyNK7c78bLwvsdeMH5-21" source="emwWbNpicgDGUg5nURXW-12" target="emwWbNpicgDGUg5nURXW-26">
          <mxGeometry relative="1" as="geometry" />
        </mxCell>
        <mxCell id="emwWbNpicgDGUg5nURXW-12" value="If More Options&lt;br&gt;selected" style="whiteSpace=wrap;html=1;fontFamily=Helvetica;fontSize=12;align=center;" vertex="1" parent="dNxyNK7c78bLwvsdeMH5-21">
          <mxGeometry x="450" y="20" width="86" height="30" as="geometry" />
        </mxCell>
        <mxCell id="emwWbNpicgDGUg5nURXW-13" value="If Game object selected" style="whiteSpace=wrap;html=1;fontFamily=Helvetica;fontSize=12;align=center;" vertex="1" parent="dNxyNK7c78bLwvsdeMH5-21">
          <mxGeometry x="450" y="70" width="86" height="30" as="geometry" />
        </mxCell>
        <mxCell id="emwWbNpicgDGUg5nURXW-25" value="If Sort Options&lt;br&gt;selected" style="whiteSpace=wrap;html=1;fontFamily=Helvetica;fontSize=12;align=center;" vertex="1" parent="dNxyNK7c78bLwvsdeMH5-21">
          <mxGeometry x="570" y="10" width="86" height="30" as="geometry" />
        </mxCell>
        <mxCell id="emwWbNpicgDGUg5nURXW-26" value="If Developer&amp;nbsp;&lt;br&gt;selected" style="whiteSpace=wrap;html=1;fontFamily=Helvetica;fontSize=12;align=center;" vertex="1" parent="dNxyNK7c78bLwvsdeMH5-21">
          <mxGeometry x="570" y="50" width="86" height="30" as="geometry" />
        </mxCell>
        <mxCell id="emwWbNpicgDGUg5nURXW-36" value="Prints out new &lt;br&gt;sorted list &lt;br&gt;of games" style="shape=step;perimeter=stepPerimeter;whiteSpace=wrap;html=1;fixedSize=1;glass=0;fillColor=#ffe6cc;strokeColor=#d79b00;" vertex="1" parent="dNxyNK7c78bLwvsdeMH5-21">
          <mxGeometry x="780" y="20" width="120" height="80" as="geometry" />
        </mxCell>
        <mxCell id="emwWbNpicgDGUg5nURXW-43" value="Prints out &lt;br&gt;Game object &lt;br&gt;info" style="shape=step;perimeter=stepPerimeter;whiteSpace=wrap;html=1;fixedSize=1;glass=0;fillColor=#ffe6cc;strokeColor=#d79b00;" vertex="1" parent="dNxyNK7c78bLwvsdeMH5-21">
          <mxGeometry x="940" y="20" width="120" height="80" as="geometry" />
        </mxCell>
        <mxCell id="emwWbNpicgDGUg5nURXW-65" value="If Start Over Selected" style="whiteSpace=wrap;html=1;fontFamily=Helvetica;fontSize=12;align=center;" vertex="1" parent="dNxyNK7c78bLwvsdeMH5-21">
          <mxGeometry x="347" y="130" width="86" height="30" as="geometry" />
        </mxCell>
        <mxCell id="dNxyNK7c78bLwvsdeMH5-22" value="Game Class" style="swimlane;html=1;startSize=20;horizontal=0;glass=0;" parent="dNxyNK7c78bLwvsdeMH5-19" vertex="1">
          <mxGeometry x="20" y="180" width="1110" height="150" as="geometry" />
        </mxCell>
        <mxCell id="emwWbNpicgDGUg5nURXW-5" value="New Game objects are created &amp;amp; stored, Developer assigned" style="shape=card;whiteSpace=wrap;html=1;glass=0;fillColor=#fff2cc;strokeColor=#d6b656;" vertex="1" parent="dNxyNK7c78bLwvsdeMH5-22">
          <mxGeometry x="220" y="15" width="120" height="80" as="geometry" />
        </mxCell>
        <mxCell id="emwWbNpicgDGUg5nURXW-57" style="edgeStyle=orthogonalEdgeStyle;orthogonalLoop=1;jettySize=auto;html=1;entryX=0;entryY=0.5;entryDx=0;entryDy=0;" edge="1" parent="dNxyNK7c78bLwvsdeMH5-22" source="emwWbNpicgDGUg5nURXW-16" target="emwWbNpicgDGUg5nURXW-56">
          <mxGeometry relative="1" as="geometry" />
        </mxCell>
        <mxCell id="emwWbNpicgDGUg5nURXW-16" value="Retrieve Game Object selected by user" style="whiteSpace=wrap;html=1;aspect=fixed;glass=0;fillColor=#f5f5f5;strokeColor=#666666;fontColor=#333333;" vertex="1" parent="dNxyNK7c78bLwvsdeMH5-22">
          <mxGeometry x="410" y="15" width="80" height="80" as="geometry" />
        </mxCell>
        <mxCell id="emwWbNpicgDGUg5nURXW-29" value="Additional Game Object info is stored" style="whiteSpace=wrap;html=1;aspect=fixed;glass=0;fillColor=#f5f5f5;strokeColor=#666666;fontColor=#333333;" vertex="1" parent="dNxyNK7c78bLwvsdeMH5-22">
          <mxGeometry x="630" y="15" width="80" height="80" as="geometry" />
        </mxCell>
        <mxCell id="emwWbNpicgDGUg5nURXW-34" value="Retrieves Game Objects to sort" style="whiteSpace=wrap;html=1;aspect=fixed;glass=0;fillColor=#f5f5f5;strokeColor=#666666;fontColor=#333333;" vertex="1" parent="dNxyNK7c78bLwvsdeMH5-22">
          <mxGeometry x="750" y="20" width="80" height="80" as="geometry" />
        </mxCell>
        <mxCell id="emwWbNpicgDGUg5nURXW-56" value="Checks if there is any missing info" style="whiteSpace=wrap;html=1;aspect=fixed;glass=0;fillColor=#f5f5f5;strokeColor=#666666;fontColor=#333333;" vertex="1" parent="dNxyNK7c78bLwvsdeMH5-22">
          <mxGeometry x="530" y="15" width="80" height="80" as="geometry" />
        </mxCell>
        <mxCell id="emwWbNpicgDGUg5nURXW-60" value="If No Missing Info" style="whiteSpace=wrap;html=1;fontFamily=Helvetica;fontSize=12;align=center;" vertex="1" parent="dNxyNK7c78bLwvsdeMH5-22">
          <mxGeometry x="890" y="40" width="86" height="30" as="geometry" />
        </mxCell>
        <mxCell id="emwWbNpicgDGUg5nURXW-61" style="edgeStyle=orthogonalEdgeStyle;orthogonalLoop=1;jettySize=auto;html=1;exitX=0.75;exitY=1;exitDx=0;exitDy=0;entryX=0.5;entryY=1;entryDx=0;entryDy=0;jumpStyle=arc;jumpSize=10;shadow=0;sketch=0;" edge="1" parent="dNxyNK7c78bLwvsdeMH5-22" source="emwWbNpicgDGUg5nURXW-56" target="emwWbNpicgDGUg5nURXW-60">
          <mxGeometry relative="1" as="geometry">
            <mxPoint x="1013" y="70" as="targetPoint" />
            <Array as="points">
              <mxPoint x="590" y="110" />
              <mxPoint x="933" y="110" />
            </Array>
          </mxGeometry>
        </mxCell>
        <mxCell id="emwWbNpicgDGUg5nURXW-71" value="Game Objects Reset" style="shape=card;whiteSpace=wrap;html=1;rounded=0;glass=0;sketch=0;fillColor=#fff2cc;strokeColor=#d6b656;" vertex="1" parent="dNxyNK7c78bLwvsdeMH5-22">
          <mxGeometry x="60" y="15" width="110" height="55" as="geometry" />
        </mxCell>
        <mxCell id="vWouyCo1F20YEl_oMGs6-5" value="Scraper Class" style="swimlane;html=1;startSize=20;horizontal=0;" parent="dNxyNK7c78bLwvsdeMH5-19" vertex="1">
          <mxGeometry x="20" y="330" width="1110" height="150" as="geometry" />
        </mxCell>
        <mxCell id="vWouyCo1F20YEl_oMGs6-7" value="Scrape &lt;br&gt;Highest Rated or &lt;br&gt;New Release pages" style="shape=process;whiteSpace=wrap;html=1;backgroundOutline=1;fontFamily=Helvetica;fontSize=12;align=center;fillColor=#f8cecc;strokeColor=#b85450;" parent="vWouyCo1F20YEl_oMGs6-5" vertex="1">
          <mxGeometry x="70" y="15" width="130" height="90" as="geometry" />
        </mxCell>
        <mxCell id="emwWbNpicgDGUg5nURXW-21" value="Scrape &lt;br&gt;Game Info page and add missing info to Game object" style="shape=process;whiteSpace=wrap;html=1;backgroundOutline=1;fontFamily=Helvetica;fontSize=12;align=center;fillColor=#f8cecc;strokeColor=#b85450;" vertex="1" parent="vWouyCo1F20YEl_oMGs6-5">
          <mxGeometry x="428" y="15" width="130" height="90" as="geometry" />
        </mxCell>
        <mxCell id="emwWbNpicgDGUg5nURXW-6" style="edgeStyle=orthogonalEdgeStyle;orthogonalLoop=1;jettySize=auto;html=1;exitX=1;exitY=0.25;exitDx=0;exitDy=0;" edge="1" parent="dNxyNK7c78bLwvsdeMH5-19" source="vWouyCo1F20YEl_oMGs6-7" target="emwWbNpicgDGUg5nURXW-5">
          <mxGeometry relative="1" as="geometry" />
        </mxCell>
        <mxCell id="emwWbNpicgDGUg5nURXW-30" style="edgeStyle=orthogonalEdgeStyle;orthogonalLoop=1;jettySize=auto;html=1;exitX=1;exitY=0.5;exitDx=0;exitDy=0;jumpStyle=arc;jumpSize=10;" edge="1" parent="dNxyNK7c78bLwvsdeMH5-19" source="emwWbNpicgDGUg5nURXW-21" target="emwWbNpicgDGUg5nURXW-29">
          <mxGeometry relative="1" as="geometry" />
        </mxCell>
        <mxCell id="emwWbNpicgDGUg5nURXW-35" style="edgeStyle=orthogonalEdgeStyle;orthogonalLoop=1;jettySize=auto;html=1;entryX=0.25;entryY=0;entryDx=0;entryDy=0;" edge="1" parent="dNxyNK7c78bLwvsdeMH5-19" source="emwWbNpicgDGUg5nURXW-25" target="emwWbNpicgDGUg5nURXW-34">
          <mxGeometry relative="1" as="geometry" />
        </mxCell>
        <mxCell id="emwWbNpicgDGUg5nURXW-39" style="edgeStyle=orthogonalEdgeStyle;orthogonalLoop=1;jettySize=auto;html=1;exitX=1;exitY=0.5;exitDx=0;exitDy=0;rounded=1;" edge="1" parent="dNxyNK7c78bLwvsdeMH5-19" source="emwWbNpicgDGUg5nURXW-34">
          <mxGeometry relative="1" as="geometry">
            <mxPoint x="870" y="100" as="targetPoint" />
            <Array as="points">
              <mxPoint x="870" y="240" />
            </Array>
          </mxGeometry>
        </mxCell>
        <mxCell id="emwWbNpicgDGUg5nURXW-46" style="edgeStyle=orthogonalEdgeStyle;orthogonalLoop=1;jettySize=auto;html=1;exitX=0.75;exitY=1;exitDx=0;exitDy=0;entryX=0.5;entryY=1;entryDx=0;entryDy=0;jumpStyle=arc;jumpSize=10;" edge="1" parent="dNxyNK7c78bLwvsdeMH5-19" source="emwWbNpicgDGUg5nURXW-29" target="emwWbNpicgDGUg5nURXW-43">
          <mxGeometry relative="1" as="geometry">
            <Array as="points">
              <mxPoint x="710" y="310" />
              <mxPoint x="1020" y="310" />
            </Array>
          </mxGeometry>
        </mxCell>
        <mxCell id="emwWbNpicgDGUg5nURXW-58" style="edgeStyle=orthogonalEdgeStyle;orthogonalLoop=1;jettySize=auto;html=1;entryX=0.75;entryY=0;entryDx=0;entryDy=0;" edge="1" parent="dNxyNK7c78bLwvsdeMH5-19" source="emwWbNpicgDGUg5nURXW-56" target="emwWbNpicgDGUg5nURXW-21">
          <mxGeometry relative="1" as="geometry" />
        </mxCell>
        <mxCell id="emwWbNpicgDGUg5nURXW-64" style="edgeStyle=orthogonalEdgeStyle;curved=0;rounded=1;sketch=0;orthogonalLoop=1;jettySize=auto;html=1;exitX=0.75;exitY=0;exitDx=0;exitDy=0;entryX=0.125;entryY=1;entryDx=0;entryDy=0;entryPerimeter=0;" edge="1" parent="dNxyNK7c78bLwvsdeMH5-19" source="emwWbNpicgDGUg5nURXW-60" target="emwWbNpicgDGUg5nURXW-43">
          <mxGeometry relative="1" as="geometry" />
        </mxCell>
        <mxCell id="emwWbNpicgDGUg5nURXW-68" style="edgeStyle=orthogonalEdgeStyle;rounded=1;sketch=0;jumpStyle=arc;jumpSize=10;orthogonalLoop=1;jettySize=auto;html=1;entryX=0.587;entryY=1.039;entryDx=0;entryDy=0;entryPerimeter=0;shadow=0;" edge="1" parent="dNxyNK7c78bLwvsdeMH5-19" source="emwWbNpicgDGUg5nURXW-5" target="emwWbNpicgDGUg5nURXW-8">
          <mxGeometry relative="1" as="geometry" />
        </mxCell>
        <mxCell id="emwWbNpicgDGUg5nURXW-70" style="edgeStyle=orthogonalEdgeStyle;rounded=1;sketch=0;jumpStyle=arc;jumpSize=10;orthogonalLoop=1;jettySize=auto;html=1;entryX=0.5;entryY=0;entryDx=0;entryDy=0;shadow=0;" edge="1" parent="dNxyNK7c78bLwvsdeMH5-19" source="emwWbNpicgDGUg5nURXW-13" target="emwWbNpicgDGUg5nURXW-16">
          <mxGeometry relative="1" as="geometry" />
        </mxCell>
        <mxCell id="emwWbNpicgDGUg5nURXW-72" style="edgeStyle=orthogonalEdgeStyle;rounded=1;sketch=0;jumpStyle=arc;jumpSize=10;orthogonalLoop=1;jettySize=auto;html=1;entryX=0;entryY=0;entryDx=70;entryDy=0;entryPerimeter=0;shadow=0;" edge="1" parent="dNxyNK7c78bLwvsdeMH5-19" source="emwWbNpicgDGUg5nURXW-65" target="emwWbNpicgDGUg5nURXW-71">
          <mxGeometry relative="1" as="geometry" />
        </mxCell>
        <mxCell id="emwWbNpicgDGUg5nURXW-73" style="edgeStyle=orthogonalEdgeStyle;rounded=1;sketch=0;jumpStyle=arc;jumpSize=10;orthogonalLoop=1;jettySize=auto;html=1;entryX=0.5;entryY=1;entryDx=0;entryDy=0;shadow=0;" edge="1" parent="dNxyNK7c78bLwvsdeMH5-19" source="emwWbNpicgDGUg5nURXW-71" target="vWouyCo1F20YEl_oMGs6-9">
          <mxGeometry relative="1" as="geometry" />
        </mxCell>
        <mxCell id="dNxyNK7c78bLwvsdeMH5-23" value="User Starts App" style="ellipse;whiteSpace=wrap;html=1;fillColor=#d5e8d4;strokeColor=#82b366;" parent="1" vertex="1">
          <mxGeometry x="50" y="60" width="70" height="70" as="geometry" />
        </mxCell>
        <mxCell id="vWouyCo1F20YEl_oMGs6-11" style="edgeStyle=orthogonalEdgeStyle;orthogonalLoop=1;jettySize=auto;html=1;entryX=0.5;entryY=0;entryDx=0;entryDy=0;" parent="1" source="dNxyNK7c78bLwvsdeMH5-23" target="vWouyCo1F20YEl_oMGs6-9" edge="1">
          <mxGeometry relative="1" as="geometry" />
        </mxCell>
        <mxCell id="dNxyNK7c78bLwvsdeMH5-24" value="User Selects Which page to&amp;nbsp;&lt;br&gt;view" style="shape=hexagon;perimeter=hexagonPerimeter2;whiteSpace=wrap;html=1;fixedSize=1;fontFamily=Helvetica;fontSize=12;align=center;spacingRight=0;fillColor=#dae8fc;strokeColor=#6c8ebf;" parent="1" vertex="1">
          <mxGeometry x="170" y="65" width="100" height="65" as="geometry" />
        </mxCell>
        <mxCell id="vWouyCo1F20YEl_oMGs6-12" style="edgeStyle=orthogonalEdgeStyle;orthogonalLoop=1;jettySize=auto;html=1;exitX=1;exitY=0.5;exitDx=0;exitDy=0;" parent="1" source="vWouyCo1F20YEl_oMGs6-9" edge="1">
          <mxGeometry relative="1" as="geometry">
            <mxPoint x="220" y="130" as="targetPoint" />
            <Array as="points">
              <mxPoint x="220" y="250" />
            </Array>
          </mxGeometry>
        </mxCell>
        <mxCell id="vWouyCo1F20YEl_oMGs6-13" style="edgeStyle=orthogonalEdgeStyle;orthogonalLoop=1;jettySize=auto;html=1;entryX=0.5;entryY=0;entryDx=0;entryDy=0;jumpStyle=arc;jumpSize=10;" parent="1" edge="1" target="vWouyCo1F20YEl_oMGs6-7">
          <mxGeometry relative="1" as="geometry">
            <mxPoint x="90" y="685" as="targetPoint" />
            <Array as="points">
              <mxPoint x="230" y="130" />
              <mxPoint x="230" y="480" />
              <mxPoint x="175" y="480" />
            </Array>
            <mxPoint x="230" y="130" as="sourcePoint" />
          </mxGeometry>
        </mxCell>
        <mxCell id="emwWbNpicgDGUg5nURXW-38" style="edgeStyle=orthogonalEdgeStyle;orthogonalLoop=1;jettySize=auto;html=1;exitX=0.625;exitY=1;exitDx=0;exitDy=0;entryX=0.5;entryY=0;entryDx=0;entryDy=0;" edge="1" parent="1" source="emwWbNpicgDGUg5nURXW-7" target="emwWbNpicgDGUg5nURXW-11">
          <mxGeometry relative="1" as="geometry">
            <Array as="points">
              <mxPoint x="430" y="130" />
            </Array>
          </mxGeometry>
        </mxCell>
        <mxCell id="emwWbNpicgDGUg5nURXW-7" value="User determines&lt;br&gt;&amp;nbsp;next action" style="shape=hexagon;perimeter=hexagonPerimeter2;whiteSpace=wrap;html=1;fixedSize=1;glass=0;fillColor=#dae8fc;strokeColor=#6c8ebf;" vertex="1" parent="1">
          <mxGeometry x="354" y="65" width="120" height="65" as="geometry" />
        </mxCell>
        <mxCell id="emwWbNpicgDGUg5nURXW-10" style="edgeStyle=orthogonalEdgeStyle;orthogonalLoop=1;jettySize=auto;html=1;exitX=0.5;exitY=0;exitDx=0;exitDy=0;entryX=0;entryY=0.5;entryDx=0;entryDy=0;" edge="1" parent="1" source="emwWbNpicgDGUg5nURXW-8" target="emwWbNpicgDGUg5nURXW-7">
          <mxGeometry relative="1" as="geometry" />
        </mxCell>
        <mxCell id="emwWbNpicgDGUg5nURXW-42" style="edgeStyle=orthogonalEdgeStyle;orthogonalLoop=1;jettySize=auto;html=1;entryX=1;entryY=0.5;entryDx=0;entryDy=0;jumpStyle=arc;jumpSize=10;" edge="1" parent="1" source="emwWbNpicgDGUg5nURXW-36" target="emwWbNpicgDGUg5nURXW-7">
          <mxGeometry relative="1" as="geometry">
            <Array as="points">
              <mxPoint x="850" y="98" />
            </Array>
          </mxGeometry>
        </mxCell>
        <mxCell id="emwWbNpicgDGUg5nURXW-44" style="edgeStyle=orthogonalEdgeStyle;orthogonalLoop=1;jettySize=auto;html=1;entryX=1;entryY=0.5;entryDx=0;entryDy=0;jumpStyle=arc;jumpSize=10;" edge="1" parent="1" source="emwWbNpicgDGUg5nURXW-43" target="emwWbNpicgDGUg5nURXW-7">
          <mxGeometry relative="1" as="geometry">
            <Array as="points">
              <mxPoint x="1110" y="98" />
            </Array>
          </mxGeometry>
        </mxCell>
        <mxCell id="emwWbNpicgDGUg5nURXW-48" value="Program Exits" style="ellipse;whiteSpace=wrap;html=1;fillColor=#d5e8d4;strokeColor=#82b366;" vertex="1" parent="1">
          <mxGeometry x="1170" y="120" width="70" height="70" as="geometry" />
        </mxCell>
        <mxCell id="emwWbNpicgDGUg5nURXW-53" style="edgeStyle=orthogonalEdgeStyle;orthogonalLoop=1;jettySize=auto;html=1;exitX=0.75;exitY=0;exitDx=0;exitDy=0;entryX=0;entryY=0.5;entryDx=0;entryDy=0;jumpStyle=arc;jumpSize=10;" edge="1" parent="1" source="emwWbNpicgDGUg5nURXW-11" target="emwWbNpicgDGUg5nURXW-48">
          <mxGeometry relative="1" as="geometry" />
        </mxCell>
      </root>
    </mxGraphModel>
  </diagram>
</mxfile>
